<svg xmlns="http://www.w3.org/2000/svg" viewBox="0 0 520 232" width="520" height="232" font-family="monospace">
<rect width="520" height="232" fill="#ffffff"/>
<text x="8" y="30" font-size="24" text-anchor="start" fill="#3b82f6" font-weight="400">(4, 3)</text>
<rect x="8" y="46" width="44" height="44" fill="#dbeafe" stroke="#3b82f6" stroke-width="2"/>
<text x="30.0" y="76.64" font-size="24" text-anchor="middle" fill="#0f172a">1</text>
<rect x="52" y="46" width="44" height="44" fill="#dbeafe" stroke="#3b82f6" stroke-width="2"/>
<text x="74.0" y="76.64" font-size="24" text-anchor="middle" fill="#0f172a">2</text>
<rect x="96" y="46" width="44" height="44" fill="#dbeafe" stroke="#3b82f6" stroke-width="2"/>
<text x="118.0" y="76.64" font-size="24" text-anchor="middle" fill="#0f172a">3</text>
<rect x="8" y="90" width="44" height="44" fill="#dbeafe" stroke="#3b82f6" stroke-width="2"/>
<text x="30.0" y="120.64" font-size="24" text-anchor="middle" fill="#0f172a">1</text>
<rect x="52" y="90" width="44" height="44" fill="#dbeafe" stroke="#3b82f6" stroke-width="2"/>
<text x="74.0" y="120.64" font-size="24" text-anchor="middle" fill="#0f172a">2</text>
<rect x="96" y="90" width="44" height="44" fill="#dbeafe" stroke="#3b82f6" stroke-width="2"/>
<text x="118.0" y="120.64" font-size="24" text-anchor="middle" fill="#0f172a">3</text>
<rect x="8" y="134" width="44" height="44" fill="#dbeafe" stroke="#3b82f6" stroke-width="2"/>
<text x="30.0" y="164.64" font-size="24" text-anchor="middle" fill="#0f172a">1</text>
<rect x="52" y="134" width="44" height="44" fill="#dbeafe" stroke="#3b82f6" stroke-width="2"/>
<text x="74.0" y="164.64" font-size="24" text-anchor="middle" fill="#0f172a">2</text>
<rect x="96" y="134" width="44" height="44" fill="#dbeafe" stroke="#3b82f6" stroke-width="2"/>
<text x="118.0" y="164.64" font-size="24" text-anchor="middle" fill="#0f172a">3</text>
<rect x="8" y="178" width="44" height="44" fill="#dbeafe" stroke="#3b82f6" stroke-width="2"/>
<text x="30.0" y="208.64" font-size="24" text-anchor="middle" fill="#0f172a">1</text>
<rect x="52" y="178" width="44" height="44" fill="#dbeafe" stroke="#3b82f6" stroke-width="2"/>
<text x="74.0" y="208.64" font-size="24" text-anchor="middle" fill="#0f172a">2</text>
<rect x="96" y="178" width="44" height="44" fill="#dbeafe" stroke="#3b82f6" stroke-width="2"/>
<text x="118.0" y="208.64" font-size="24" text-anchor="middle" fill="#0f172a">3</text>
<text x="162" y="134" font-size="30" text-anchor="middle" fill="#475569" font-weight="700">+</text>
<text x="190" y="30" font-size="24" text-anchor="start" fill="#d97706" font-weight="400">(3,)</text>
<rect x="190" y="46" width="44" height="44" fill="#fef3c7" stroke="#d97706" stroke-width="2"/>
<text x="212.0" y="76.64" font-size="24" text-anchor="middle" fill="#0f172a">10</text>
<rect x="234" y="46" width="44" height="44" fill="#fef3c7" stroke="#d97706" stroke-width="2"/>
<text x="256.0" y="76.64" font-size="24" text-anchor="middle" fill="#0f172a">20</text>
<rect x="278" y="46" width="44" height="44" fill="#fef3c7" stroke="#d97706" stroke-width="2"/>
<text x="300.0" y="76.64" font-size="24" text-anchor="middle" fill="#0f172a">30</text>
<rect x="190" y="90" width="44" height="44" fill="#fef3c7" stroke="#d97706" stroke-width="2" stroke-dasharray="5 4" opacity="0.55"/>
<text x="212.0" y="120.64" font-size="24" text-anchor="middle" fill="#0f172a" opacity="0.6">10</text>
<rect x="234" y="90" width="44" height="44" fill="#fef3c7" stroke="#d97706" stroke-width="2" stroke-dasharray="5 4" opacity="0.55"/>
<text x="256.0" y="120.64" font-size="24" text-anchor="middle" fill="#0f172a" opacity="0.6">20</text>
<rect x="278" y="90" width="44" height="44" fill="#fef3c7" stroke="#d97706" stroke-width="2" stroke-dasharray="5 4" opacity="0.55"/>
<text x="300.0" y="120.64" font-size="24" text-anchor="middle" fill="#0f172a" opacity="0.6">30</text>
<rect x="190" y="134" width="44" height="44" fill="#fef3c7" stroke="#d97706" stroke-width="2" stroke-dasharray="5 4" opacity="0.55"/>
<text x="212.0" y="164.64" font-size="24" text-anchor="middle" fill="#0f172a" opacity="0.6">10</text>
<rect x="234" y="134" width="44" height="44" fill="#fef3c7" stroke="#d97706" stroke-width="2" stroke-dasharray="5 4" opacity="0.55"/>
<text x="256.0" y="164.64" font-size="24" text-anchor="middle" fill="#0f172a" opacity="0.6">20</text>
<rect x="278" y="134" width="44" height="44" fill="#fef3c7" stroke="#d97706" stroke-width="2" stroke-dasharray="5 4" opacity="0.55"/>
<text x="300.0" y="164.64" font-size="24" text-anchor="middle" fill="#0f172a" opacity="0.6">30</text>
<rect x="190" y="178" width="44" height="44" fill="#fef3c7" stroke="#d97706" stroke-width="2" stroke-dasharray="5 4" opacity="0.55"/>
<text x="212.0" y="208.64" font-size="24" text-anchor="middle" fill="#0f172a" opacity="0.6">10</text>
<rect x="234" y="178" width="44" height="44" fill="#fef3c7" stroke="#d97706" stroke-width="2" stroke-dasharray="5 4" opacity="0.55"/>
<text x="256.0" y="208.64" font-size="24" text-anchor="middle" fill="#0f172a" opacity="0.6">20</text>
<rect x="278" y="178" width="44" height="44" fill="#fef3c7" stroke="#d97706" stroke-width="2" stroke-dasharray="5 4" opacity="0.55"/>
<text x="300.0" y="208.64" font-size="24" text-anchor="middle" fill="#0f172a" opacity="0.6">30</text>
<text x="344" y="134" font-size="30" text-anchor="middle" fill="#475569" font-weight="700">=</text>
<text x="372" y="30" font-size="24" text-anchor="start" fill="#16a34a" font-weight="400">(4, 3)</text>
<rect x="372" y="46" width="44" height="44" fill="#dcfce7" stroke="#16a34a" stroke-width="2"/>
<text x="394.0" y="76.64" font-size="24" text-anchor="middle" fill="#0f172a">11</text>
<rect x="416" y="46" width="44" height="44" fill="#dcfce7" stroke="#16a34a" stroke-width="2"/>
<text x="438.0" y="76.64" font-size="24" text-anchor="middle" fill="#0f172a">22</text>
<rect x="460" y="46" width="44" height="44" fill="#dcfce7" stroke="#16a34a" stroke-width="2"/>
<text x="482.0" y="76.64" font-size="24" text-anchor="middle" fill="#0f172a">33</text>
<rect x="372" y="90" width="44" height="44" fill="#dcfce7" stroke="#16a34a" stroke-width="2"/>
<text x="394.0" y="120.64" font-size="24" text-anchor="middle" fill="#0f172a">11</text>
<rect x="416" y="90" width="44" height="44" fill="#dcfce7" stroke="#16a34a" stroke-width="2"/>
<text x="438.0" y="120.64" font-size="24" text-anchor="middle" fill="#0f172a">22</text>
<rect x="460" y="90" width="44" height="44" fill="#dcfce7" stroke="#16a34a" stroke-width="2"/>
<text x="482.0" y="120.64" font-size="24" text-anchor="middle" fill="#0f172a">33</text>
<rect x="372" y="134" width="44" height="44" fill="#dcfce7" stroke="#16a34a" stroke-width="2"/>
<text x="394.0" y="164.64" font-size="24" text-anchor="middle" fill="#0f172a">11</text>
<rect x="416" y="134" width="44" height="44" fill="#dcfce7" stroke="#16a34a" stroke-width="2"/>
<text x="438.0" y="164.64" font-size="24" text-anchor="middle" fill="#0f172a">22</text>
<rect x="460" y="134" width="44" height="44" fill="#dcfce7" stroke="#16a34a" stroke-width="2"/>
<text x="482.0" y="164.64" font-size="24" text-anchor="middle" fill="#0f172a">33</text>
<rect x="372" y="178" width="44" height="44" fill="#dcfce7" stroke="#16a34a" stroke-width="2"/>
<text x="394.0" y="208.64" font-size="24" text-anchor="middle" fill="#0f172a">11</text>
<rect x="416" y="178" width="44" height="44" fill="#dcfce7" stroke="#16a34a" stroke-width="2"/>
<text x="438.0" y="208.64" font-size="24" text-anchor="middle" fill="#0f172a">22</text>
<rect x="460" y="178" width="44" height="44" fill="#dcfce7" stroke="#16a34a" stroke-width="2"/>
<text x="482.0" y="208.64" font-size="24" text-anchor="middle" fill="#0f172a">33</text>
</svg>
